Coordinates
version=1
nRows=38
nColumns=12
inDegrees=yes

Units are S.I. units (second, meters, Newtons, ...)
Angles are in degrees

endheader
time	SC_y	SC_z	SC_x	AC_y	AC_z	AC_x	GH_y	GH_z	GH_yy	EL_x	PS_y
       0.0               -16.1          5.696          59.47          56.58          1.841         -8.091         -135.0           83.5          87.16          13.87          17.24
   0.03978              -16.11          5.701          59.47          56.58           1.84         -8.092         -134.9           83.5          87.12          13.89          17.25
   0.07955              -16.11          5.706          59.47          56.57           1.84         -8.092         -134.9          83.49          87.09          13.91          17.27
    0.1193              -16.12          5.712          59.47          56.57          1.839         -8.092         -134.9          83.48          87.05          13.93          17.29
    0.1591              -16.12          5.718          59.47          56.57          1.839         -8.092         -134.9          83.47          87.01          13.95          17.32
    0.1989              -16.13          5.724          59.47          56.56          1.838         -8.092         -134.8          83.46          86.97          13.97          17.34
    0.2387              -16.14          5.731          59.46          56.56          1.837         -8.093         -134.8          83.45          86.92           14.0          17.36
    0.2784              -16.15          5.739          59.46          56.55          1.837         -8.093         -134.8          83.44          86.88          14.02          17.39
    0.3182              -16.15          5.746          59.46          56.55          1.836         -8.093         -134.7          83.43          86.83          14.05          17.42
     0.358              -16.16          5.755          59.46          56.54          1.835         -8.094         -134.7          83.41          86.77          14.08          17.45
    0.3978              -16.17          5.764          59.46          56.54          1.835         -8.094         -134.6           83.4          86.71          14.12          17.48
    0.4375              -16.18          5.774          59.46          56.53          1.834         -8.094         -134.6          83.38          86.65          14.15          17.52
    0.4773               -16.2          5.784          59.46          56.53          1.833         -8.095         -134.5          83.37          86.58          14.19          17.55
    0.5171              -16.21          5.795          59.45          56.52          1.832         -8.095         -134.5          83.35           86.5          14.23           17.6
    0.5569              -16.22          5.808          59.45          56.51          1.831         -8.096         -134.4          83.33          86.42          14.27          17.64
    0.5966              -16.23          5.821          59.45          56.51          1.829         -8.096         -134.4          83.31          86.34          14.32          17.69
    0.6364              -16.25          5.835          59.45           56.5          1.828         -8.097         -134.3          83.29          86.24          14.37          17.74
    0.6762              -16.27          5.851          59.44          56.49          1.827         -8.098         -134.2          83.26          86.14          14.43           17.8
     0.716              -16.28          5.868          59.44          56.48          1.825         -8.098         -134.1          83.24          86.02          14.49          17.86
    0.7557               -16.3          5.887          59.44          56.47          1.824         -8.099         -134.0          83.21           85.9          14.56          17.93
    0.7955              -16.33          5.908          59.43          56.46          1.822           -8.1         -133.9          83.17          85.76          14.63           18.0
    0.8353              -16.35           5.93          59.43          56.44           1.82         -8.101         -133.8          83.14          85.62          14.71          18.08
    0.8751              -16.38          5.955          59.43          56.43          1.818         -8.102         -133.7           83.1          85.45           14.8          18.17
    0.9148              -16.41          5.983          59.42          56.41          1.815         -8.103         -133.6          83.05          85.27           14.9          18.27
    0.9546              -16.44          6.014          59.42          56.39          1.812         -8.104         -133.4          83.01          85.06          15.01          18.39
    0.9944              -16.48          6.048          59.41          56.37          1.809         -8.106         -133.3          82.95          84.84          15.14          18.51
     1.034              -16.52          6.087           59.4          56.35          1.806         -8.107         -133.1          82.89          84.58          15.28          18.65
     1.074              -16.57           6.13           59.4          56.33          1.802         -8.109         -132.9          82.82           84.3          15.43          18.81
     1.114              -16.62          6.179          59.39           56.3          1.798         -8.111         -132.6          82.75          83.97          15.61          18.98
     1.153              -16.68          6.235          59.38          56.26          1.793         -8.113         -132.4          82.66          83.61          15.81          19.19
     1.193              -16.74          6.299          59.37          56.23          1.787         -8.116         -132.0          82.56          83.19          16.04          19.42
     1.233              -16.82          6.372          59.35          56.19          1.781         -8.119         -131.7          82.45          82.71           16.3          19.68
     1.273              -16.91          6.456          59.34          56.14          1.773         -8.122         -131.3          82.31          82.15           16.6          19.98
     1.313              -17.02          6.554          59.32          56.08          1.765         -8.126         -130.8          82.16          81.51          16.96          20.34
     1.352              -17.14          6.668           59.3          56.01          1.754          -8.13         -130.2          81.98          80.76          17.37          20.75
     1.392              -17.28          6.803          59.28          55.93          1.743         -8.136         -129.6          81.77          79.87          17.85          21.24
     1.432              -17.46          6.964          59.25          55.84          1.728         -8.142         -128.8          81.52          78.81          18.43          21.82
     1.472              -17.66          7.156          59.22          55.73          1.711          -8.15         -127.9          81.21          77.55          19.12          22.51
